<?xml version="1.0" standalone="no"?><!DOCTYPE svg PUBLIC "-//W3C//DTD SVG 1.1//EN" "http://www.w3.org/Graphics/SVG/1.1/DTD/svg11.dtd"><svg t="1683982114775" class="icon" viewBox="0 0 1024 1024" version="1.1" xmlns="http://www.w3.org/2000/svg" p-id="1499" xmlns:xlink="http://www.w3.org/1999/xlink" width="200" height="200"><path d="M549.08 854.24c0-49.46 40.23-89.69 89.69-89.69h30.97c-24.21-24.56-38.62-58.02-38.62-94.01 0-74.27 60.42-134.71 134.71-134.71 25.13 0 48.58 7.04 68.73 19.06V110.31c0-27.48-22.34-49.83-49.83-49.83H129.54c-27.48 0-49.83 22.35-49.83 49.83v803.21c0 27.48 22.34 49.83 49.83 49.83h434.72c-9.57-14.26-15.18-31.4-15.18-49.83v-59.28zM242.16 299.65h429.51c16.52 0 29.9 13.39 29.9 29.9 0 16.51-13.37 29.9-29.9 29.9H242.16c-16.52 0-29.9-13.39-29.9-29.9 0-16.5 13.37-29.9 29.9-29.9z m0 175.06h429.51c16.52 0 29.9 13.39 29.9 29.9 0 16.51-13.37 29.9-29.9 29.9H242.16c-16.52 0-29.9-13.39-29.9-29.9 0-16.51 13.37-29.9 29.9-29.9z m266.18 224.56H242.16c-16.52 0-29.9-13.39-29.9-29.9 0-16.5 13.37-29.9 29.9-29.9h266.19c16.49 0 29.9 13.39 29.9 29.9-0.01 16.51-13.42 29.9-29.91 29.9z" p-id="1500" fill="#D7DADD"></path><path d="M892.89 804.41h-97.16v-44.3c37.62-12.63 64.95-47.78 64.95-89.57 0-52.3-42.55-94.85-94.85-94.85s-94.85 42.55-94.85 94.85c0 41.79 27.33 76.94 64.95 89.57v44.3h-97.16c-27.46 0-49.83 22.33-49.83 49.83v59.29c0 27.5 22.36 49.83 49.83 49.83h254.12c27.46 0 49.83-22.32 49.83-49.83v-59.29c0-27.5-22.37-49.83-49.83-49.83" p-id="1501" fill="#D7DADD"></path></svg>