<?xml version="1.0" standalone="no"?><!DOCTYPE svg PUBLIC "-//W3C//DTD SVG 1.1//EN" "http://www.w3.org/Graphics/SVG/1.1/DTD/svg11.dtd"><svg t="1683984651015" class="icon" viewBox="0 0 1024 1024" version="1.1" xmlns="http://www.w3.org/2000/svg" p-id="821" xmlns:xlink="http://www.w3.org/1999/xlink" width="200" height="200"><path d="M966.53827792 931.00854234l-42.99938322-580.11884657c-3.97682157-53.50067769-50.20737232-94.94661499-105.88287432-94.946615h-49.08889126c-6.2137837-134.96338205-117.9376147-242.83466715-254.39230482-242.83466714-136.45469013 0-248.17852112 107.8712851-254.39230483 242.83466714h-49.08889126c-55.73763982 0-101.96819058 41.4459373-105.88287431 94.946615l-42.99938323 580.11884657c-4.41178643 59.2173587 44.30427781 109.5490067 105.88287431 109.54900669h692.96115864c61.64073435 0 110.29466075-50.331648 105.8828743-109.54900669z m-452.36345362-806.67340042c75.12464498 0 136.82751715 58.03673979 142.85488735 131.60793885H371.31993695c6.02737019-73.57119905 67.73024237-131.60793885 142.85488735-131.60793885z m274.152137 773.67820895a51.15808123 51.15808123 0 0 1-37.03415087 15.7830106c-12.80039443 0-25.60078885-4.72247562-35.54284278-14.2917025l-81.46270436-78.23153684A230.13369325 230.13369325 0 0 1 509.63876219 857.87230814c-127.69325511 0-231.58771863-103.89446352-231.58771864-231.58771864s103.89446352-231.58771863 231.58771864-231.58771863c127.69325511 0 231.58771863 103.89446352 231.58771864 231.58771863 0 44.73924267-12.80039443 86.49586915-34.79718874 121.91443627l80.46849896 77.29946928c20.38121055 19.57341867 21.06472675 52.07150743 1.42917025 72.51485582z" fill="#D7DADD" p-id="822"></path><path d="M509.57662435 497.28643982c-71.08568557 0-128.93601185 57.85032628-128.93601185 128.93601185s57.85032628 128.93601185 128.93601185 128.93601185 128.93601185-57.85032628 128.93601186-128.93601185-57.85032628-128.93601185-128.93601186-128.93601185z" fill="#D7DADD" p-id="823"></path><path d="M615.14880948 552.34056343c-23.36382672-33.24374282-61.88928569-55.05412362-105.51004729-55.05412361-71.08568557 0-128.93601185 57.85032628-128.93601184 128.93601185 0 44.49069132 22.61817268 83.69966649 56.98039655 106.93921754a759.13795508 759.13795508 0 0 0 177.46566258-180.82110578z" fill="#D7DADD" p-id="824"></path><path d="M923.5388947 350.88969577c-3.97682157-53.50067769-50.20737232-94.94661499-105.88287432-94.946615h-49.08889126c-6.2137837-134.96338205-117.9376147-242.83466715-254.39230482-242.83466714-136.45469013 0-248.17852112 107.8712851-254.39230483 242.83466714h-49.08889126c-55.73763982 0-101.96819058 41.4459373-105.88287431 94.946615l-42.99938323 580.11884657c-4.41178643 59.2173587 44.30427781 109.5490067 105.88287431 109.54900669h414.8943379c59.71446139-34.98360225 114.20934448-77.92084765 161.99334115-127.44470376-10.50129445-1.36703242-20.6297619-5.77881885-28.89409422-13.67032415l-81.46270436-78.23153682a230.13369325 230.13369325 0 0 1-124.6485011 36.599186c-127.69325511 0-231.58771863-103.89446352-231.58771863-231.58771863s103.89446352-231.58771863 231.58771863-231.58771864c127.69325511 0 231.58771863 103.89446352 231.58771864 231.58771864 0 44.73924267-12.80039443 86.49586915-34.79718874 121.91443627l80.46849897 77.29946927c6.77302423 6.52447289 11.18481067 14.47811603 13.6081863 22.92886186 66.11465861-86.0609043 114.02293097-186.84847597 138.00813606-296.58389617l-14.91308088-200.89162713zM371.31993695 255.94308077c6.02737019-73.57119905 67.73024237-131.60793885 142.85488735-131.60793885s136.82751715 58.03673979 142.85488735 131.60793885H371.31993695z" fill="#D7DADD" p-id="825"></path><path d="M345.96769943 789.95565227c-41.94304-41.94304-67.97879372-99.85550412-67.97879371-163.7332006 0-127.69325511 103.89446352-231.58771863 231.58771863-231.58771864 62.38638838 0 118.99395792 24.79299698 160.68844658 65.05831538 44.42855348-88.60855562 71.89347745-187.22130299 78.16939899-291.55073138-38.89828598-91.03193125-129.1845632-154.97176557-234.25964562-154.97176556-136.45469013 0-248.17852112 107.8712851-254.39230483 242.83466713h-49.08889126c-55.73763982 0-101.96819058 41.4459373-105.88287431 94.946615l-38.64973465 521.64714192c100.1661933-9.19639988 194.73998128-38.02835627 279.80668018-82.64332325z m168.20712487-665.62051035c75.12464498 0 136.82751715 58.03673979 142.85488735 131.60793885H371.31993695c6.02737019-73.57119905 67.73024237-131.60793885 142.85488735-131.60793885z" fill="#D7DADD" p-id="826"></path><path d="M445.32610085 255.94308077H371.31993695c5.96523235-72.51485582 65.99038293-129.80594157 139.62371982-131.48366317 13.48391063-35.35642928 24.42016995-71.95561529 32.49808878-109.67328237-9.63136475-1.11848107-19.38700515-1.73985943-29.26692125-1.73985944-136.45469013 0-248.17852112 107.8712851-254.39230483 242.83466714h-49.08889126c-55.73763982 0-101.96819058 41.4459373-105.88287431 94.94661499l-15.03735657 203.31500278c147.51522512-59.71446139 271.7908992-164.9138195 355.55270352-298.19947993z" fill="#D7DADD" p-id="827"></path></svg>