<?xml version="1.0" standalone="no"?><!DOCTYPE svg PUBLIC "-//W3C//DTD SVG 1.1//EN" "http://www.w3.org/Graphics/SVG/1.1/DTD/svg11.dtd"><svg t="1683984730069" class="icon" viewBox="0 0 1024 1024" version="1.1" xmlns="http://www.w3.org/2000/svg" p-id="816" xmlns:xlink="http://www.w3.org/1999/xlink" width="200" height="200"><path d="M691.96458667 547.17098667l-54.17073778 54.74417778-39.45130667-35.13116445-47.89703111-46.45660445 85.90904889-91.92561777c96.46990222 42.04088889 196.54997333 24.98901333 263.90641778-33.37329778 66.13560889-57.39975111 66.13560889-170.25251555 66.13560889-170.25251555l-52.95559112-20.66887112-101.78104888 103.02919112-148.42766222-147.14993778 102.48533333-103.69820445-20.92373333-52.82474667c0 0-102.54449778 0-170.92266667 67.86389334-63.54375111 63.03402667-83.66762667 166.73223111-38.90744889 260.48056889l-89.14375111 86.96604444-128.30264889-124.49678222-7.61400889-87.19132445-120.11406222-77.43032888-33.88302223 33.91488-33.82158222 33.9456-33.91488 33.91488 77.30176 120.33592888 81.75047112 7.13728 131.53848888 125.32963556-336.12117333 327.89617778c0 0-9.69500445 60.25102222 29.56515555 99.57262222 31.64501333 31.67459555 89.07776 25.18243555 89.07776 25.18243556l326.2316089-349.07704889 47.28945777 45.08444444 35.13116445 34.97073778-67.34961778 69.17347555c96.62805333 96.72476445 193.22538667 193.51324445 289.85116444 290.30172445 99.50663111-26.81400889 156.87907555-95.89304889 189.47982222-189.80408889-96.72362667-96.85105778-193.35281778-193.63953778-289.9501511-290.36202666v0M169.08401778 865.47228445c-15.48401778 15.58072889-40.66759111 15.77073778-56.34616889 0.28785777-15.61486222-15.51587555-15.74343111-40.79502222-0.28785778-56.50659555 15.45329778-15.71157333 40.69944889-15.86858667 56.37688889-0.28785778 15.58186667 15.55114667 15.80828445 40.76316445 0.256 56.50659556v0M800.90794667 952.81720889l-219.78112-220.13383111 32.57230222-32.60529778 227.58741333 228.06983111-40.37745777 24.66816M878.34168889 890.96988445l-227.58741334-227.97198223 32.60302223-32.70087111 219.74926222 220.13383111-24.76487111 40.53902223M878.34168889 890.96988445v0z" fill="#D7DADD" p-id="817"></path></svg>