<?xml version="1.0" standalone="no"?><!DOCTYPE svg PUBLIC "-//W3C//DTD SVG 1.1//EN" "http://www.w3.org/Graphics/SVG/1.1/DTD/svg11.dtd"><svg t="1683983183314" class="icon" viewBox="0 0 1024 1024" version="1.1" xmlns="http://www.w3.org/2000/svg" p-id="6289" xmlns:xlink="http://www.w3.org/1999/xlink" width="200" height="200"><path d="M919.893333 109.226667H104.106667C66.56 109.226667 34.133333 141.653333 34.133333 180.906667v534.186666C34.133333 754.346667 66.56 785.066667 104.106667 785.066667h187.733333v110.933333c0 13.653333 13.653333 22.186667 25.6 15.36L554.666667 785.066667h365.226666c39.253333 0 69.973333-32.426667 69.973334-69.973334V180.906667c0-39.253333-32.426667-71.68-69.973334-71.68zM283.306667 551.253333h-40.96l-59.733334-110.933333-20.48-44.373333h-1.706666c1.706667 22.186667 5.12 47.786667 5.12 71.68v81.92H126.293333V346.453333h42.666667l59.733333 109.226667 20.48 44.373333h1.706667c-1.706667-22.186667-5.12-49.493333-5.12-71.68v-81.92h39.253333v204.8z m180.906666 0h-129.706666v-204.8H460.8v34.133334h-85.333333v47.786666h71.68v34.133334H375.466667v54.613333h88.746666v34.133333z m228.693334 0h-51.2l-23.893334-102.4c-3.413333-15.36-6.826667-32.426667-8.533333-47.786666h-1.706667c-3.413333 15.36-5.12 30.72-8.533333 47.786666l-22.186667 102.4h-51.2l-39.253333-206.506666H529.066667l17.066666 100.693333 10.24 66.56h1.706667c3.413333-22.186667 8.533333-44.373333 13.653333-66.56l23.893334-100.693333H631.466667l23.893333 100.693333c5.12 20.48 8.533333 42.666667 13.653333 66.56H665.6c3.413333-22.186667 6.826667-44.373333 8.533333-66.56l15.36-100.693333h39.253334l-35.84 206.506666z m129.706666 5.12c-27.306667 0-54.613333-10.24-75.093333-30.72l23.893333-29.013333c15.36 13.653333 34.133333 22.186667 52.906667 22.186667 22.186667 0 32.426667-8.533333 32.426667-23.893334 0-15.36-11.946667-20.48-30.72-27.306666l-27.306667-11.946667c-20.48-8.533333-40.96-25.6-40.96-54.613333 0-34.133333 29.013333-59.733333 71.68-59.733334 23.893333 0 47.786667 10.24 64.853333 27.306667L870.4 394.24c-13.653333-10.24-27.306667-17.066667-44.373333-17.066667-18.773333 0-29.013333 8.533333-29.013334 22.186667 0 15.36 15.36 20.48 32.426667 27.306667l27.306667 11.946666c25.6 10.24 40.96 25.6 40.96 56.32 0 32.426667-27.306667 61.44-75.093334 61.44z" fill="#D7DADD" p-id="6290"></path></svg>