<?xml version="1.0" standalone="no"?><!DOCTYPE svg PUBLIC "-//W3C//DTD SVG 1.1//EN" "http://www.w3.org/Graphics/SVG/1.1/DTD/svg11.dtd"><svg t="1683989022829" class="icon" viewBox="0 0 1024 1024" version="1.1" xmlns="http://www.w3.org/2000/svg" p-id="906" xmlns:xlink="http://www.w3.org/1999/xlink" width="200" height="200"><path d="M851.54624 172.54976C760.86848 81.92768 640.35008 32 512.09216 32 383.88032 32 263.35424 81.92768 172.7168 172.55936 82.04288 263.22176 32.10944 383.77088 32.10944 512.00192c-0.02304 128.24832 49.87584 248.7744 140.53248 339.48672C263.26976 942.0704 383.80736 992 512.00768 992c128.25792 0 248.83776-49.96416 339.53856-140.60736C1038.65792 664.2656 1038.6848 359.75552 851.54624 172.54976zM737.92064 684.24128c-11.04192 19.1232-31.76256 25.67616-50.88 14.64192l-165.00288-100.00128c-5.56032-3.20448-14.6784-7.72224-18-12.72C492.03968 579.28064 473.6 566.84096 473.6 552.0032L473.6 272.00384c0-22.08192 17.91936-40.0032 39.99552-40.0032 22.08192 0 40.00512 17.91936 40.00512 40.0032l0 261.6768 165.91872 95.95968C738.68096 640.68032 748.96064 665.11808 737.92064 684.24128z" fill="#D7DADD" p-id="907"></path></svg>