<?xml version="1.0" standalone="no"?><!DOCTYPE svg PUBLIC "-//W3C//DTD SVG 1.1//EN" "http://www.w3.org/Graphics/SVG/1.1/DTD/svg11.dtd"><svg t="1683989030632" class="icon" viewBox="0 0 1024 1024" version="1.1" xmlns="http://www.w3.org/2000/svg" p-id="1398" xmlns:xlink="http://www.w3.org/1999/xlink" width="200" height="200"><path d="M458.97571239 816.88965373c-13.2560719 0-35.34952507 4.41869063-66.2803595 8.83738127v154.65417218h-114.88595647v-141.39810028c-101.62988459 13.2560719-207.67845979 26.51214381-238.60929422 30.93083443L25.94403028 746.19060358c13.2560719-4.41869063 30.93083443-4.41869063 57.44297825-8.83738127V189.43558373h-26.51214379V65.71224598h375.58870385v123.72333775h-39.7682157v508.14942288c26.51214381-4.41869063 39.7682157-4.41869063 53.02428761-8.83738127l4.41869063 66.28035952 8.83738126 61.86166887zM202.69165565 189.43558373v97.21119396h70.69905013V189.43558373H202.69165565z m0 309.30834437h70.69905013v-92.7925033H202.69165565v92.7925033z m70.69905013 212.09715042v-92.79250332H202.69165565v101.62988459l70.69905013-8.83738127z m357.91394133-75.11774077l-4.41869064 35.34952507h304.88965374c0 13.2560719-13.2560719 154.65417218-17.67476254 181.16631599-8.83738127 106.0485752-44.18690634 123.72333775-167.91024409 136.97940964l-75.11774076 8.83738127-35.34952507-119.30464712 88.37381267-4.41869063c57.44297824-4.41869063 75.11774077-8.83738127 79.53643141-48.60559697 4.41869063-13.2560719 4.41869063-26.51214381 4.41869063-44.18690635h-322.56441627l22.09345318-141.39810027H423.62618732v-101.62988457h574.4297824v101.62988457l-366.75132261-4.41869063z m322.56441626-136.97940965H450.13833113V96.64308043H644.56071902V25.94403028l110.46726584 4.41869064v66.28035951H953.86906337v402.10084767zM560.60559698 202.69165565v44.18690632H644.56071902V202.69165565h-83.95512204z m0 194.42238788H644.56071902v-44.18690635h-83.95512204v44.18690635zM755.02798486 202.69165565v44.18690632h83.95512204V202.69165565h-83.95512204z m83.95512204 194.42238788v-44.18690635h-83.95512204v44.18690635h83.95512204z" p-id="1399" fill="#D7DADD"></path></svg>