<?xml version="1.0" standalone="no"?><!DOCTYPE svg PUBLIC "-//W3C//DTD SVG 1.1//EN" "http://www.w3.org/Graphics/SVG/1.1/DTD/svg11.dtd"><svg t="1683988819756" class="icon" viewBox="0 0 1024 1024" version="1.1" xmlns="http://www.w3.org/2000/svg" p-id="816" xmlns:xlink="http://www.w3.org/1999/xlink" width="200" height="200"><path d="M872.18409131 877.97272695h-90.02045478v15.87272784c0 26.40681826-20.18863652 47.7-45 47.7-24.83181826 0-45.02045479-21.39545479-45.02045479-47.7v-15.87272784H332.06136348v15.87272784c0 26.40681826-20.18863652 47.7-45.00000001 47.7-24.83181826 0-45.02045479-21.39545479-45.02045478-47.7v-15.87272784H152.02045479C118.88409131 877.97272695 62 817.69318174 62 782.49090869v-349.97727216c0-35.1 26.81590869-63.65454521 59.97272695-63.65454522h59.99318174c33.13636348 0 59.97272695 28.43181826 59.97272784 63.65454522V687.09090869h540.12272695V432.51363652c0-35.1 26.81590869-63.65454521 59.97272783-63.65454521h59.99318174c33.13636348 0 59.97272695 28.43181826 59.97272695 63.65454522V782.61363653c0.20454521 35.1-56.65909131 95.37954521-89.81590869 95.37954521zM812.19090869 305.20454521c-49.70454521 0-90 42.79090869-90 95.50227305v222.72954522H301.99318174V400.68636348c0-52.71136347-40.29545479-95.50227305-90-95.50227217-10.55454521 0-20.61818174-3.57954521-30.06818174 0V177.97727305C181.96590869 125.24545479 222.26136347 82.45454521 272.00681826 82.45454521h480.12954521c49.74545479 0 90.02045479 42.79090869 90.02045479 95.50227305v127.32954521c-9.45-3.68181826-19.39090869-0.10227305-29.94545479-0.10227216z" fill="#D7DADD" p-id="817"></path></svg>