<svg width="1024" height="1024" xmlns="http://www.w3.org/2000/svg" version="1.1" class="icon">

 <g>
  <title>Layer 1</title>
  <path id="svg_1" d="m861.09091,442.18182l-46.54545,0l0,-232.72728l-605.09092,0l0,232.72728l-46.54545,0l0,-279.27273l698.18182,0l0,279.27273z" fill="#262626"/>
  <path id="svg_2" d="m954.18182,907.63636l-232.72727,0l0,-69.81818l-418.90909,0l0,69.81818l-232.72728,0l0,-512l232.72727,0l0,186.18182l418.90909,0l0,-186.18182l232.72728,0l0,512zm-186.18182,-46.54545l139.63636,0l0,-418.90909l-139.63636,0l0,186.18182l-512,0l0,-186.18182l-139.63636,0l0,418.90909l139.63636,0l0,-69.81818l512,0l0,69.81818z" fill="#262626"/>
  <text stroke-width="3" transform="matrix(12.8234 0 0 12.8972 -5406.63 -4167.09)" stroke="#000" xml:space="preserve" text-anchor="start" font-family="'Saira'" font-size="24" id="svg_3" y="361.51334" x="454.4182" fill="#000000">3</text>
 </g>
</svg>