<?xml version="1.0" standalone="no"?><!DOCTYPE svg PUBLIC "-//W3C//DTD SVG 1.1//EN" "http://www.w3.org/Graphics/SVG/1.1/DTD/svg11.dtd"><svg t="1688662698971" class="icon" viewBox="0 0 1024 1024" version="1.1" xmlns="http://www.w3.org/2000/svg" p-id="7933" xmlns:xlink="http://www.w3.org/1999/xlink" width="200" height="200"><path d="M867.12716 413.627529l-66.998927 0c-6.316869-13.610996-15.271822-41.920762-26.731828-62.090127l47.319725-45.986357c14.944364-14.944364 14.96176-38.448684 0.029676-53.367465l-54.019311-53.691853c-14.914688-14.915711-39.10053-14.753005-54.044894 0.179079l-44.683688 47.390333c-20.139689-11.447726-48.449455-20.335141-62.060451-26.64894L605.937462 152.421458c0-21.120017-22.37459-38.21537-43.457768-38.21537l-76.389808 0c-21.094434 0-43.469024 17.095353-43.469024 38.21537l0 67.004043c-13.610996 6.313799-41.908482 15.271822-62.077847 26.714432l-45.99966-47.319725c-14.944364-14.944364-38.465057-14.944364-53.367465-0.028653l-53.691853 54.031591c-14.902408 14.902408-14.765285 39.08825 0.179079 54.04387l47.402613 44.683688c-11.460006 20.169365-20.335141 48.466851-26.64894 62.077847l-66.986647 0c-21.137413 0-38.232766 22.37459-38.232766 43.452651l0 76.393901c0 21.084201 17.095353 43.470047 38.232766 43.470047l66.998927 0c6.316869 13.610996 15.285125 41.903366 26.719548 62.077847l-47.324842 46.01501c-14.944364 14.94027-14.944364 38.432311-0.025583 53.351092l54.015218 53.704133c14.902408 14.902408 39.10053 14.753005 54.04387-0.191358l44.683688-47.402613c20.169365 11.447726 48.466851 20.331048 62.077847 26.64894l0 67.00302c0 21.12104 22.37459 38.216393 43.452651 38.216393l76.393901 0c21.084201 0 43.470047-17.095353 43.470047-38.232766l0-66.998927c13.610996-6.316869 41.903366-15.285125 62.090127-26.731828l46.00273 47.319725c14.94027 14.944364 38.432311 14.944364 53.351092 0.029676l53.704133-54.020334c14.902408-14.914688 14.753005-39.099507-0.191358-54.04387l-47.402613-44.683688c11.447726-20.168342 20.331048-48.449455 26.64894-62.060451l67.00302 0c21.12104 0 38.216393-22.37459 38.216393-43.457768l0-76.389808C905.358903 436.002119 888.263549 413.627529 867.12716 413.627529L867.12716 413.627529zM524.276604 667.140383c-94.925976 0-171.876556-76.95058-171.876556-171.868369 0-94.932116 76.95058-171.881672 171.876556-171.881672 94.943372 0 171.882696 76.95058 171.882696 171.881672C696.1593 590.189803 619.219977 667.140383 524.276604 667.140383L524.276604 667.140383z" fill="#808080" p-id="7934"></path></svg>