<?xml version="1.0" standalone="no"?><!DOCTYPE svg PUBLIC "-//W3C//DTD SVG 1.1//EN" "http://www.w3.org/Graphics/SVG/1.1/DTD/svg11.dtd"><svg t="1683989027144" class="icon" viewBox="0 0 1024 1024" version="1.1" xmlns="http://www.w3.org/2000/svg" p-id="1152" xmlns:xlink="http://www.w3.org/1999/xlink" width="200" height="200"><path d="M583.94 158.6c19.56 54.9 33.24 120.18 40.14 191.58 56.88 2.1 110.64 8.58 161.16 19.44 2.22-14.52 5.52-27.24 9.12-37.98 10.62-31.92 27.96-59.7 50.22-80.4 15.12-14.04 31.8-24.24 49.2-30.18a481.6828125 481.6828125 0 0 0-42.36-48.42c-44.1-44.1-95.4-78.66-152.58-102.84C640.1 44.9 577.76 32.18 513.44 32c28.14 31.68 51.78 74.04 70.5 126.6zM926 274.28c-30.36 2.46-61.38 33.72-75.42 75.96-3.12 9.36-5.94 20.76-7.56 33.96 52.14 15.42 100.32 36 144.48 61.62a473.67375 473.67375 0 0 0-33.24-120.66 496.790625 496.790625 0 0 0-25.38-51.3c-0.9 0.18-1.86 0.3-2.88 0.42z m-643.92-42.42c45.96 25.56 78.72 65.64 94.8 115.98a231.763125 231.763125 0 0 1 4.62 16.8c50.58-7.32 99.6-12.06 146.82-14.16 12.18-0.48 24.24-0.84 36.18-0.96-6.6-63.96-18.96-122.16-36.36-171-23.76-66.66-56.52-114.3-94.68-137.7-1.02-0.6-1.92-1.26-2.82-1.98-36.12 6.18-71.4 16.5-105.48 30.9-57.18 24.18-108.48 58.8-152.58 102.84a478.2525 478.2525 0 0 0-25.44 27.54c51.72 0.06 97.02 10.68 134.94 31.74z m709.26 286.32c-45.18-30.84-94.26-54.24-146.04-71.28 2.22 12.3 5.64 25.32 10.44 39.12 19.68 56.22 58.62 111.78 115.74 165.3C984.5 608.48 991.4 564.02 992 518.6a4.0359375 4.0359375 0 0 1-0.66-0.42zM569.48 422.06c-0.18-4.5-0.36-9-0.54-13.44-60.06 0.72-120.84 6.18-180.96 15-0.12 12.6-1.08 25.44-2.94 38.58-5.7 40.5-19.56 81.42-41.1 121.74-45.18 84.42-120.06 158.58-216.9 214.86 13.86 18.54 29.04 36.12 45.6 52.62 44.1 44.1 95.4 78.66 152.58 102.84 41.1 17.4 84 28.8 128.1 34.2 79.56-157.56 123-369.3 116.16-566.4z m-246.66-47.82c-0.72-2.82-1.5-5.64-2.4-8.4-24.84-77.82-101.76-115.92-211.14-104.46-2.28 0.24-4.5 0.24-6.72-0.06a474.4603125 474.4603125 0 0 0-32.82 63.84C53.12 364.52 41.9 405.44 36.26 447.5c99.84-32.34 195.6-56.82 286.56-73.26z m623.94 334.62c-72.78-64.32-122.22-132.78-146.88-203.28-9.6-27.54-14.64-52.92-16.5-75.9-50.16-11.46-102.18-17.88-155.1-20.16 0.12 3.48 0.3 6.96 0.42 10.44 3.42 98.4-5.16 203.16-24.9 303.12-19.38 98.16-48.42 188.46-86.34 268.92 62.88-0.72 123.9-13.38 181.44-37.68 57.18-24.18 108.48-58.8 152.58-102.84 40.98-40.98 73.8-88.32 97.62-140.7-0.84-0.6-1.62-1.2-2.34-1.92zM291.68 555.98c22.02-41.16 34.44-83.4 36.6-122.52-101.46 18.66-199.56 45.84-287.4 74.88a30.62625 30.62625 0 0 1-8.88 1.5V512c0 64.8 12.72 127.68 37.74 186.84 7.32 17.28 15.6 34.08 24.84 50.28 111.72-64.2 168.84-140.28 197.1-193.14z m0 0" fill="#D7DADD" p-id="1153"></path></svg>